<svg xmlns="http://www.w3.org/2000/svg" xmlns:xlink="http://www.w3.org/1999/xlink" aria-hidden="true" role="img" class="iconify iconify--logos" width="35.93" height="32" preserveAspectRatio="xMidYMid meet" viewBox="0 0 256 228"><path fill="#00D8FF" d="M210.483 73.824a171.49 171.49 0 0 0-8.24-2.597c.465-1.9.893-3.777 1.273-5.621c6.238-30.281 2.16-54.676-11.769-62.708c-13.355-7.7-35.196.329-57.254 19.526a171.23 171.23 0 0 0-6.375 5.848a155.866 155.866 0 0 0-4.241-3.917C100.759 3.829 77.587-4.822 63.673 3.233C50.33 10.957 46.379 33.89 51.995 62.588a170.974 170.974 0 0 0 1.892 8.48c-3.28.932-6.445 1.924-9.474 2.98C17.309 83.498 0 98.307 0 113.668c0 15.865 18.582 31.778 46.812 41.427a145.52 145.52 0 0 0 6.921 2.165a167.467 167.467 0 0 0-2.01 9.138c-5.354 28.2-1.173 50.591 12.134 58.266c13.744 7.926 36.812-.22 59.273-19.855a145.567 145.567 0 0 0 5.342-4.923a168.064 168.064 0 0 0 6.92 6.314c21.758 18.722 43.246 26.282 56.54 18.586c13.731-7.949 18.194-32.003 12.4-61.268a145.016 145.016 0 0 0-1.535-6.842c1.62-.48 3.21-.974 4.76-1.488c29.348-9.723 48.443-25.443 48.443-41.52c0-15.417-17.868-30.326-45.517-39.844Zm-6.365 70.984c-1.4.463-2.836.91-4.3 1.345c-3.24-10.257-7.365-21.232-12.217-32.674a134.417 134.417 0 0 1-4.821-12.433a135.56 135.56 0 0 1 4.752-12.605c4.87-11.451 9.12-22.432 12.37-32.708a338.5 338.5 0 0 1 4.241 1.311c25.483 8.781 41.69 21.944 41.69 33.86c0 12.483-17.723 26.28-43.695 35.504Zm-11.051-68.917c2.601 8.278 5.706 17.133 9.207 26.28a330.195 330.195 0 0 1-9.207-26.28Zm-67.31 123.446c-5.454 3.15-10.583 5.904-15.291 8.22c-20.475 9.566-38.801 12.48-47.516 7.358c-9.003-5.216-11.365-22.922-6.374-45.115a127.608 127.608 0 0 1 3.841-12.482a358.557 358.557 0 0 1 12.496 7.458a403.78 403.78 0 0 0 15.575 8.62a403.733 403.733 0 0 0 15.575-8.62a358.557 358.557 0 0 1 12.496-7.458a127.608 127.608 0 0 1 3.841 12.482c4.991 22.193 2.629 39.899-6.374 45.115Zm-9.626-123.01a330.195 330.195 0 0 1 9.207-26.28a330.195 330.195 0 0 1-9.207 26.28Zm-67.069 43.019a134.167 134.167 0 0 1-4.821 12.433a134.167 134.167 0 0 1-4.821-12.433a135.56 135.56 0 0 1 4.752-12.605a134.417 134.417 0 0 1 4.821 12.433a135.56 135.56 0 0 1-4.752 12.605Zm-1.343 77.105c-4.87-11.451-9.12-22.432-12.37-32.708a338.5 338.5 0 0 1-4.241-1.311c-25.483-8.781-41.69-21.944-41.69-33.86c0-12.483 17.723-26.28 43.695-35.504c1.4-.463 2.836-.91 4.3-1.345c3.24 10.257 7.365 21.232 12.217 32.674a134.417 134.417 0 0 1 4.821 12.433a135.56 135.56 0 0 1-4.752 12.605c-4.87 11.451-9.12 22.432-12.37 32.708a338.5 338.5 0 0 1-4.241 1.311c-25.483 8.781-41.69 21.944-41.69 33.86c0 12.483 17.723 26.28 43.695 35.504Zm67.069-43.019a134.167 134.167 0 0 1 4.821-12.433a134.167 134.167 0 0 1 4.821 12.433a135.56 135.56 0 0 1-4.752 12.605a134.417 134.417 0 0 1-4.821-12.433a135.56 135.56 0 0 1 4.752-12.605Zm67.31-123.446c5.454-3.15 10.583-5.904 15.291-8.22c20.475-9.566 38.801-12.48 47.516-7.358c9.003 5.216 11.365 22.922 6.374 45.115a127.608 127.608 0 0 1-3.841 12.482a358.557 358.557 0 0 1-12.496-7.458a403.78 403.78 0 0 0-15.575-8.62a403.733 403.733 0 0 0-15.575 8.62a358.557 358.557 0 0 1-12.496 7.458a127.608 127.608 0 0 1-3.841-12.482c-4.991-22.193-2.629-39.899 6.374-45.115Zm9.626 123.01a330.195 330.195 0 0 1-9.207 26.28a330.195 330.195 0 0 1 9.207-26.28ZM128 138.757c-5.912 0-10.707-4.795-10.707-10.707s4.795-10.707 10.707-10.707s10.707 4.795 10.707 10.707s-4.795 10.707-10.707 10.707Z"></path></svg>
